<?xml version="1.0" encoding="utf-8"?>
<!-- Generator: Adobe Illustrator 23.0.2, SVG Export Plug-In . SVG Version: 6.00 Build 0)  -->
<svg version="1.1" id="Layer_1" xmlns="http://www.w3.org/2000/svg" xmlns:xlink="http://www.w3.org/1999/xlink" x="0px" y="0px"
	 viewBox="0 0 600 500" style="enable-background:new 0 0 600 500;" xml:space="preserve">
<style type="text/css">
	.st0{fill:#D2E7F9;}
	.st1{fill:#CDD1CF;}
	.st2{fill:#1C0D04;}
	.st3{fill:#0355A6;}
	.st4{fill:#F69622;}
	.st5{fill:#474747;}
	.st6{fill:#C3C3C3;}
	.st7{fill:#F6F1D3;}
	.st8{fill:#4A3231;}
	.st9{fill:#3D3D3D;}
	.st10{fill:#E2DCC0;}
	.st11{fill:#BFBFBF;}
	.st12{fill:#494848;}
	.st13{fill:#594040;}
	.st14{fill:#A7A9AC;}
	.st15{fill:#FFB743;}
	.st16{fill:#545454;}
	.st17{fill:#CEC8AB;}
	.st18{fill:#DDD6BA;}
	.st19{fill:#ECF4CE;}
	.st20{fill:#737171;}
	.st21{fill:#B7B7B7;}
	.st22{fill:#EFCEAC;}
	.st23{fill:#E0B999;}
	.st24{fill:#C9C3B9;}
	.st25{fill:#FFFFFF;}
	.st26{fill:#470A04;}
	.st27{fill:#E2DED7;}
	.st28{fill:#2D6572;}
	.st29{fill:#357787;}
	.st30{fill:#774B42;}
	.st31{fill:url(#SVGID_1_);}
	.st32{fill:#D8A88F;}
	.st33{fill:url(#SVGID_2_);}
	.st34{fill:#9AA4A5;}
	.st35{fill:#BBC3C4;}
	.st36{fill:#F12E09;}
	.st37{fill:#FFAD40;}
</style>
<path class="st0" d="M130,417.23C68.15,332.74-93.45-13.48,126.49,64.71S359.3,5.99,446.25,10.58s189.17,213.48,103.36,355.14
	C463.81,507.37,209.29,525.53,130,417.23z"/>
<path id="_x30_" class="st1" d="M287.72,412.58c-130.8,0-236.83,3.09-236.83,6.89c0,3.8,106.03,6.89,236.83,6.89
	c130.8,0,236.83-3.09,236.83-6.89C524.55,415.67,418.52,412.58,287.72,412.58z"/>
<g id="_x31_">
	<g id="_x32_">
		<g>
			<g>
				<path class="st2" d="M209.71,141.21c-3.41,5.97-4.57,11.73-2.59,12.86c1.98,1.13,6.34-2.8,9.75-8.78
					c3.41-5.97,4.57-11.73,2.59-12.86C217.48,131.31,213.12,135.24,209.71,141.21z"/>
			</g>
			<g>
				<path class="st3" d="M205.86,152.73c0.22,0.53,0.5,0.9,0.82,1.09c0.06,0.04,0.13,0.07,0.21,0.08c1.84,0.6,5.82-3.36,9.11-9.11
					c3.27-5.74,4.65-11.18,3.21-12.46c-0.06-0.06-0.12-0.11-0.19-0.15c-0.32-0.18-0.79-0.23-1.35-0.15
					c-2.44,0.34-6.77,3.01-9.57,7.57c-0.1,0.17-0.2,0.34-0.3,0.51C205.01,145,204.88,150.39,205.86,152.73z"/>
			</g>
			<g>
				<path class="st4" d="M205.86,152.73c0.12-0.05,0.24-0.13,0.37-0.22c1.68-1.18,4.43-4.75,7.02-9.28
					c2.59-4.53,4.25-8.71,4.41-10.77c0.02-0.16,0.02-0.31,0.01-0.44c-2.44,0.34-6.77,3.01-9.57,7.57c-0.1,0.17-0.2,0.34-0.3,0.51
					C205.01,145,204.88,150.39,205.86,152.73z"/>
			</g>
			<path class="st5" d="M208.17,140.52c-0.74,1.22-0.59,2.65,0.32,3.21c0.92,0.56,2.26,0.02,3-1.19c0.74-1.22,0.59-2.65-0.32-3.21
				C210.25,138.77,208.91,139.31,208.17,140.52z"/>
			<g>
				<path class="st6" d="M183.21,184.36c0.46,0,0.89-0.27,1.07-0.72l15.63-39.37l10.02-1.92c0.62-0.12,1.03-0.72,0.91-1.34
					c-0.12-0.62-0.72-1.03-1.34-0.91l-10.64,2.04c-0.39,0.07-0.71,0.34-0.85,0.7l-15.86,39.96c-0.23,0.59,0.05,1.26,0.64,1.49
					C182.93,184.33,183.07,184.36,183.21,184.36z"/>
			</g>
		</g>
		<g>
			<path class="st7" d="M376.29,366.17c0,15.07,12.22,27.29,27.29,27.29c15.07,0,27.29-12.22,27.29-27.29
				c0-15.07-12.22-27.29-27.29-27.29C388.51,338.89,376.29,351.1,376.29,366.17z"/>
			<path class="st3" d="M386.69,366.17c0,8.7,7.05,15.74,15.74,15.74c8.69,0,15.74-7.05,15.74-15.74s-7.05-15.74-15.74-15.74
				C393.74,350.43,386.69,357.48,386.69,366.17z"/>
			<path class="st8" d="M397.13,366.17c0,2.93,2.37,5.3,5.3,5.3s5.3-2.37,5.3-5.3c0-2.93-2.37-5.3-5.3-5.3
				S397.13,363.25,397.13,366.17z"/>
			<path class="st9" d="M351.8,367.69c0,28.6,23.18,51.78,51.78,51.78c28.59,0,51.78-23.18,51.78-51.78
				c0-28.59-23.18-51.78-51.78-51.78C374.98,315.92,351.8,339.1,351.8,367.69z M372.53,366.17c0-16.48,13.36-29.84,29.84-29.84
				c16.48,0,29.84,13.36,29.84,29.84s-13.36,29.84-29.84,29.84C385.89,396.01,372.53,382.65,372.53,366.17z"/>
			<path class="st8" d="M362.51,367.69c0,22.69,18.38,41.07,41.07,41.07c22.68,0,41.07-18.38,41.07-41.07
				c0-22.68-18.39-41.07-41.07-41.07C380.89,326.62,362.51,345.01,362.51,367.69z M378.95,366.49c0-13.07,10.6-23.67,23.67-23.67
				c13.07,0,23.67,10.6,23.67,23.67c0,13.07-10.6,23.67-23.67,23.67C389.55,390.16,378.95,379.56,378.95,366.49z"/>
			<path class="st10" d="M354.5,366.17c0,26.62,21.43,48.2,47.87,48.2s47.88-21.58,47.88-48.2c0-26.63-21.44-48.2-47.88-48.2
				S354.5,339.55,354.5,366.17z M372.53,366.17c0-16.48,13.36-29.84,29.84-29.84c16.48,0,29.84,13.36,29.84,29.84
				s-13.36,29.84-29.84,29.84C385.89,396.01,372.53,382.65,372.53,366.17z"/>
			<g>
				<path class="st3" d="M402.81,403.6c-20.64,0-37.43-16.79-37.43-37.43c0-20.64,16.79-37.43,37.43-37.43
					c20.64,0,37.43,16.79,37.43,37.43C440.24,386.81,423.45,403.6,402.81,403.6z M402.81,333.18c-18.19,0-32.99,14.8-32.99,32.99
					s14.8,32.99,32.99,32.99c18.19,0,32.99-14.8,32.99-32.99S421.01,333.18,402.81,333.18z"/>
			</g>
		</g>
		<g>
			<path class="st7" d="M78.6,366.18c0,15.07,12.22,27.29,27.29,27.29c15.07,0,27.29-12.22,27.29-27.29
				c0-15.07-12.22-27.29-27.29-27.29C90.82,338.89,78.6,351.11,78.6,366.18z"/>
			<path class="st3" d="M88.99,366.18c0,8.7,7.05,15.74,15.74,15.74c8.69,0,15.74-7.05,15.74-15.74s-7.05-15.74-15.74-15.74
				C96.04,350.44,88.99,357.49,88.99,366.18z"/>
			<path class="st9" d="M54.11,367.7c0,28.6,23.18,51.78,51.78,51.78c28.59,0,51.78-23.18,51.78-51.78
				c0-28.59-23.18-51.78-51.78-51.78C77.29,315.93,54.11,339.11,54.11,367.7z M74.84,366.18c0-16.48,13.36-29.84,29.84-29.84
				c16.48,0,29.84,13.36,29.84,29.84c0,16.48-13.36,29.84-29.84,29.84C88.2,396.02,74.84,382.66,74.84,366.18z"/>
			<path class="st8" d="M64.81,367.7c0,22.69,18.38,41.07,41.07,41.07c22.68,0,41.07-18.38,41.07-41.07
				c0-22.68-18.39-41.07-41.07-41.07C83.2,326.63,64.81,345.02,64.81,367.7z M81.26,366.5c0-13.07,10.6-23.67,23.67-23.67
				c13.07,0,23.67,10.6,23.67,23.67c0,13.07-10.6,23.67-23.67,23.67C91.85,390.17,81.26,379.57,81.26,366.5z"/>
			<path class="st10" d="M56.8,366.18c0,26.62,21.43,48.2,47.87,48.2c26.44,0,47.88-21.58,47.88-48.2c0-26.63-21.44-48.2-47.88-48.2
				C78.23,317.98,56.8,339.55,56.8,366.18z M74.84,366.18c0-16.48,13.36-29.84,29.84-29.84c16.48,0,29.84,13.36,29.84,29.84
				c0,16.48-13.36,29.84-29.84,29.84C88.2,396.02,74.84,382.66,74.84,366.18z"/>
			<g>
				<path class="st3" d="M105.12,403.61c-20.64,0-37.43-16.79-37.43-37.43c0-20.64,16.79-37.43,37.43-37.43
					c20.64,0,37.43,16.79,37.43,37.43C142.55,386.82,125.76,403.61,105.12,403.61z M105.12,333.19c-18.19,0-32.99,14.8-32.99,32.99
					c0,18.19,14.8,32.99,32.99,32.99c18.19,0,32.99-14.8,32.99-32.99C138.11,347.99,123.31,333.19,105.12,333.19z"/>
			</g>
			<g>
				<path class="st6" d="M100.57,364.01c0,0,2.85,1.05,4.45,2.41c0.55,0.46,0.91,0.91,0.86,1.28c-0.17,1.44,27.2-36.63,27.28-36.73
					l-2.62-3.52l-2.5-3.36l-4.44,6.28l-21.12,30.72L100.57,364.01z"/>
				<path class="st5" d="M100.88,362.55c0.09,0.21,1.16-0.61,1.13-0.44c-0.25,1.25,21.96-30.69,22.02-30.77l-0.42-0.96
					L100.88,362.55z"/>
				<path class="st5" d="M105.02,366.42c0.55,0.46,0.91,0.91,0.86,1.28c-0.17,1.44,27.2-36.63,27.28-36.73l-2.62-3.52L105.02,366.42
					z"/>
			</g>
			<path class="st8" d="M99.44,366.18c0,2.93,2.37,5.3,5.3,5.3c2.93,0,5.3-2.37,5.3-5.3c0-2.93-2.37-5.3-5.3-5.3
				C101.81,360.88,99.44,363.26,99.44,366.18z"/>
			<path class="st11" d="M80.97,321.87c0.03,0,0.05,0.01,0.08,0.01c14.92,1.5,31.71,11.12,42.73,21.02
				c10.45,9.37,13.6,22.04,22.27,32.31c2.17,2.58,4.39,4.63,6.3,7.11c1.71-5.07,2.65-10.49,2.65-16.14
				c0-27.76-22.5-50.27-50.27-50.27C96.14,315.91,88.05,318.07,80.97,321.87z"/>
		</g>
		<path class="st12" d="M487.19,321.88h-27.68v11.36h27.66c3.14,0,5.69-2.55,5.69-5.69l0,0
			C492.86,324.42,490.32,321.88,487.19,321.88z"/>
		<g>
			<g>
				<path class="st4" d="M481.28,284.13l0.59,0.66c1.53,1.73,2.41,4.29,2.41,6.99v16.97c0,3.7-2.13,6.76-4.84,6.97l0,0
					c-1.41,0.11-2.66-1.18-2.98-3.05c-1.01-6.09-2.67-19.37,0.43-27.39C477.74,283.1,479.88,282.54,481.28,284.13z"/>
				<polygon class="st13" points="471.79,274.29 480.46,281.59 480.46,316.78 468.21,320.28 				"/>
			</g>
			<path class="st11" d="M346.75,353.19c0.59,3.95,2.05,7.91,4.47,11.73c3.81,5.99,2.3,13.18,4.57,19.55
				c1.19-0.08,17.92-20.11,43.25-26.9c37.18-9.97,54.06,4.25,52.45-1.89c-2.18-8.29-11.02-19.34-15.72-24.04
				c-10.99-11.01-22.23-19.94-37.53-19.94c-14.64,0-30.08,4.58-41.01,14.62C349.23,333.65,345.3,343.4,346.75,353.19z"/>
			<g>
				<path class="st9" d="M303.48,362.58c0.07-0.05,0.14-0.1,0.2-0.15c2.21-1.61,13.84-22.86,16.09-21.31
					c2.42,1.67,4.86,3.63,7.3,5.71c1.42-12.95,12.71-24.43,28.16-27.33c18.35-3.45,35.63,6.51,38.59,22.24
					c2.96,15.73-9.52,31.29-27.87,34.74c-3.1,0.58-47.17,0.11-60-2.55C300.55,372.8,299.02,365.82,303.48,362.58z"/>
				<path class="st14" d="M333.37,353.1c2.42,12.89,16.57,21.04,31.6,18.21c15.03-2.83,25.25-15.56,22.83-28.45
					c-2.42-12.89-16.57-21.04-31.6-18.21C341.17,327.48,330.95,340.21,333.37,353.1z M336.69,352.48
					c-2.13-11.32,6.85-22.51,20.05-24.99c13.2-2.48,25.63,4.68,27.76,16c2.13,11.32-6.85,22.51-20.05,24.99
					C351.24,370.96,338.81,363.79,336.69,352.48z"/>
				<g>
					<path class="st14" d="M339.84,353.26l42.03-7.9c0.68-0.13,1.13-0.79,1-1.46l0,0c-0.13-0.68-0.79-1.13-1.46-1l-42.03,7.9
						c-0.68,0.13-1.13,0.79-1,1.46l0,0C338.5,352.94,339.16,353.39,339.84,353.26z"/>
					<path class="st14" d="M343.54,358.6l36.82-6.92c0.68-0.13,1.13-0.79,1-1.46l0,0c-0.13-0.68-0.79-1.13-1.46-1l-36.82,6.92
						c-0.68,0.13-1.13,0.79-1,1.46l0,0C342.2,358.28,342.86,358.73,343.54,358.6z"/>
					<path class="st14" d="M348.74,363.52l28.55-5.37c0.68-0.13,1.13-0.79,1-1.46l0,0c-0.13-0.68-0.79-1.13-1.46-1l-28.55,5.37
						c-0.68,0.13-1.13,0.79-1,1.46l0,0C347.41,363.2,348.07,363.65,348.74,363.52z"/>
					<path class="st14" d="M357.49,366.55l12.75-2.4c0.68-0.13,1.13-0.79,1-1.46l0,0c-0.13-0.68-0.79-1.13-1.46-1l-12.75,2.4
						c-0.68,0.13-1.13,0.79-1,1.46l0,0C356.15,366.23,356.81,366.68,357.49,366.55z"/>
					<path class="st14" d="M377.82,338.19L341,345.11c-0.68,0.13-1.13,0.79-1,1.46l0,0c0.13,0.68,0.79,1.13,1.46,1l36.82-6.92
						c0.68-0.13,1.13-0.79,1-1.46l0,0C379.15,338.51,378.49,338.06,377.82,338.19z"/>
					<path class="st14" d="M372.61,333.26l-28.55,5.37c-0.68,0.13-1.13,0.79-1,1.46l0,0c0.13,0.68,0.79,1.13,1.46,1l28.55-5.37
						c0.68-0.13,1.13-0.79,1-1.46l0,0C373.94,333.59,373.29,333.14,372.61,333.26z"/>
					<path class="st14" d="M363.87,330.24l-12.75,2.4c-0.68,0.13-1.13,0.79-1,1.46l0,0c0.13,0.68,0.79,1.13,1.46,1l12.75-2.4
						c0.68-0.13,1.13-0.79,1-1.46l0,0C365.2,330.56,364.54,330.11,363.87,330.24z"/>
				</g>
			</g>
			<path class="st3" d="M172.52,363.45c-0.4-9.46-3.45-30.2-20.81-51.67c-14.89-16.35-48.97-28.88-90.62,1.8
				c-0.04,0.03-0.08,0.05-0.11,0.08c-1.64,1.11-0.79,3.67,1.18,3.57c28.14-1.4,59.31,6.66,77.64,29.45
				c4.41,5.55,8.22,12.13,12.92,17.37c3.27,3.64,9.88,3.98,14.54,4.41C170.16,368.7,172.65,366.35,172.52,363.45z"/>
			<path class="st4" d="M155.12,341.13c2.17-0.9,1.67-5.37,0.28-10.2c-5.33-18.52-25.78-28.47-44.18-28.47
				c-8.91,0-26.36,2.62-36.68,7.52c-0.83,0.39-0.63,1.61,0.28,1.71c18.9,2,37.12,0.55,53.72,10.19c7.07,4.11,13.53,12.15,20.2,16.9
				C151.89,341.03,153.91,341.63,155.12,341.13z"/>
			<path class="st3" d="M190.91,210.83l12.42-21.83c0.39-0.69,0.28-1.56-0.29-2.13l-17.51-17.49c-1.61-1.61-3.58-2.8-5.76-3.47
				l-14.73-4.55c-1-0.31-2.04,0.31-2.25,1.33l-5.33,25.75c-0.21,1.03,0.51,2.02,1.56,2.12l11.95,1.18c0.9,0.09,1.59,0.85,1.59,1.76
				v0.99c0,0.86-0.62,1.59-1.46,1.74l0,0c-1.57,0.28-2,2.33-0.68,3.21l17.95,11.97C189.24,212,190.4,211.72,190.91,210.83z"/>
			<path class="st15" d="M162.7,163.13h-0.86c-3.76,0-6.81,3.05-6.81,6.81v14.51c0,1.43,0.36,2.84,1.05,4.1l2.95,2.02L162.7,163.13z
				"/>
			<path class="st16" d="M461.21,252.86l-1.67,4.05c-1.18,2.87-3.02,5.41-5.39,7.41l-7.22,6.14l19.92,4.12l0,0
				c-0.27-10.03,6.59-18.87,16.39-21.05c2.12-0.47,3.53-0.67,3.53-0.67H461.21z"/>
			<g>
				<path class="st17" d="M259.28,270.65c-0.87-2.52-1.57-4.3-1.8-4.28l134.7-10.75l4.63,11.36l64.42,0.28
					c6.35,0.03,11.48,5.2,11.45,11.55l-0.18,41.6l-136.44-3.97c0,0-6.73,7.02-13.36,14.15c-5.8,0.56-13.24,2.56-22.56,6.7
					c-4.17,1.85-8.63,3.64-13.28,5.36c1.58-4.06,2.15-7.93,2.3-11C289.8,319.66,268.32,283.7,259.28,270.65z"/>
				<path class="st3" d="M210.86,360.9c16.75-3.08,35.72-3.45,50.24-13.43c9.65-6.64,13.91-17.61,13.47-29.07
					c-0.46-11.92-6.01-19.87-10.22-31.88c-0.33-0.93-3.12-10.23-5.06-15.87c9.04,13.05,30.52,49.01,29.89,60.99
					c-0.16,3.07-0.72,6.95-2.3,11c-29.05,10.74-65.63,18.63-86.22,20.26C204.31,362.3,207.87,361.45,210.86,360.9z"/>
			</g>
			<path class="st3" d="M171.78,315.36c0.1,0.21,0.19,0.42,0.28,0.64c0.05,0.13,0.11,0.26,0.18,0.39c0.15,0.36,0.31,0.71,0.44,1.06
				c0.02,0.03,0.03,0.07,0.05,0.1c0.15,0.38,0.29,0.76,0.42,1.12c0.05,0.11,0.08,0.21,0.11,0.33c0.09,0.24,0.18,0.49,0.25,0.73
				c0.05,0.12,0.08,0.24,0.12,0.36c0.07,0.22,0.14,0.44,0.2,0.65c0.03,0.11,0.07,0.21,0.1,0.32c0.07,0.24,0.13,0.47,0.19,0.7
				c0.02,0.06,0.04,0.13,0.05,0.18c0.07,0.28,0.14,0.56,0.2,0.82c0.02,0.06,0.03,0.12,0.04,0.19c0.05,0.19,0.08,0.37,0.12,0.55
				c0.02,0.08,0.03,0.15,0.05,0.23c0.03,0.15,0.05,0.3,0.08,0.44c0.02,0.08,0.03,0.15,0.04,0.21c0.02,0.14,0.05,0.28,0.06,0.4
				c0.01,0.05,0.02,0.1,0.02,0.15c0.02,0.17,0.05,0.32,0.06,0.46c0,0.03,0.01,0.05,0.01,0.08c0.02,0.11,0.02,0.21,0.03,0.3
				c0,0.04,0.01,0.07,0.01,0.11c0.01,0.06,0.01,0.12,0.02,0.18v0.08c0.01,0.05,0.01,0.08,0.01,0.12v0.03c0,0.03,0.01,0.05,0.01,0.05
				l4.8-3.26c1.51-1.02,2.85-2.17,4.01-3.42c3.5-3.73,5.37-8.33,5.22-13.08l-1.53-49.24c-0.04-1.26-0.7-2.39-1.75-3.21
				c-0.82-0.63-1.87-1.09-3.04-1.25c-0.33-0.05-0.67-0.08-1.02-0.08c-3.89,0-6.51-1.65-7.12-4.04
				C171.09,262.16,167.46,287.06,171.78,315.36z"/>
			<path class="st4" d="M181.35,313.15c0.1,0.21,0.19,0.42,0.29,0.64c0.05,0.13,0.12,0.26,0.17,0.38c0.16,0.37,0.31,0.72,0.44,1.06
				c0.02,0.04,0.03,0.08,0.05,0.11c0.15,0.38,0.29,0.75,0.43,1.12l0.11,0.32c0.09,0.25,0.18,0.5,0.25,0.73
				c0.04,0.12,0.08,0.24,0.11,0.36c0.08,0.22,0.14,0.44,0.21,0.64c0.03,0.12,0.06,0.22,0.09,0.33c0.07,0.24,0.14,0.47,0.2,0.7
				c0.01,0.03,0.02,0.07,0.02,0.1c3.5-3.73,5.37-8.33,5.22-13.08l-1.53-49.24c-0.04-1.26-0.7-2.39-1.75-3.21
				c-0.82-0.63-1.87-1.09-3.04-1.25C179.8,267.02,177.64,288.82,181.35,313.15z"/>
			<path class="st3" d="M169.32,303.79c-0.15-0.22-0.31-0.44-0.46-0.66c-0.39-0.57-0.78-1.14-1.18-1.71c-0.21-0.3-0.44-0.6-0.66-0.9
				c-0.51-0.7-1.02-1.4-1.56-2.08c-1.31-1.65-2.67-3.23-3.79-5.01c-4.31-6.84-5.74-15.26-4.1-23.16c0.9-4.3,2.64-8.47,4.08-12.6
				c1.56-4.49,3.15-8.96,4.75-13.44c2.09-5.83,4.22-11.66,6.37-17.47c0.65-1.77,1.3-3.53,1.96-5.3c0.38-1.03,0.76-2.06,1.15-3.1
				c0.38-1.02,0.77-2.03,1.15-3.05c1.02-2.72,2.04-5.43,3.07-8.14c3.21,1.73,6.42,3.46,9.63,5.18c0.27,0.15,0.23,0.12,0.13,0.4
				c-0.19,0.51-0.38,1.02-0.57,1.53c-0.72,1.93-1.45,3.86-2.17,5.79c-2.64,7.04-5.28,14.1-7.92,21.14
				c-0.77,2.07-2.05,4.45-1.93,6.71c0.03,0.45,0.11,0.81,0.02,1.25c-0.06,0.3-0.12,0.6-0.17,0.89c-0.13,0.68-0.26,1.36-0.38,2.04
				c-0.26,1.44-0.49,2.88-0.71,4.32c-1.1,7.21-1.79,14.48-2.13,21.77c-0.59,12.39-0.18,24.85,1.32,37.17
				c-0.11-0.28-0.22-0.56-0.33-0.84c-0.03-0.08-0.06-0.16-0.09-0.24C173.34,310.62,171.5,307.07,169.32,303.79z"/>
			<g>
				<path class="st18" d="M162.62,208.7c3.39-2.64,7.79-3.92,12.18-3.28c1.71,0.25,3.38,0.78,4.92,1.56
					c0.29,0.15,0.42,0.09,0.29,0.44c-0.09,0.25-0.19,0.49-0.28,0.74c-0.19,0.49-0.37,0.98-0.56,1.47c-0.39,1.03-0.78,2.06-1.17,3.09
					c-0.33,0.87-0.65,1.74-0.97,2.61c-0.38,1.02-0.77,2.03-1.15,3.05c-0.39,1.03-0.76,2.06-1.15,3.1c-0.66,1.76-1.31,3.53-1.96,5.3
					c-2.15,5.81-4.28,11.64-6.37,17.47c-1.6,4.47-3.19,8.95-4.75,13.44c-1.44,4.14-3.18,8.3-4.08,12.6
					c-1.65,7.9-0.21,16.32,4.1,23.16c1.12,1.78,2.49,3.36,3.79,5.01c0.54,0.68,1.05,1.38,1.56,2.08c0.22,0.3,0.44,0.6,0.66,0.9
					c0.4,0.56,0.79,1.13,1.18,1.71c0.15,0.22,0.31,0.44,0.46,0.66c1.4,2.1,2.63,4.31,3.74,6.59c0.08,0.16,0.16,0.31,0.24,0.47
					c0.04,0.09,0.09,0.19,0.13,0.28c0.11,0.24,0.22,0.47,0.33,0.71c0.26,0.58,0.52,1.16,0.76,1.75c0.09,0.23,0.19,0.46,0.28,0.69
					c0.03,0.08,0.06,0.16,0.09,0.24c0.23,0.58,0.37,1.19,0.45,1.81c0.37,2.92,0.8,5.83,1.3,8.73c0.48,2.82,0.9,7.46,0.96,10.32
					c0.02,0.86,0.05,1.72,0.09,2.58c0.2,4.55,0.65,9.15,1.75,13.57c0.89,3.56,2.27,7.74,5.39,9.99c1.53,1.1,3.54,1.56,5.37,1.82
					c2.25,0.32,4.55,0.26,6.81,0.04c1.85-0.18,3.69-0.47,5.55-0.64c1.4-0.13,2.8-0.28,4.2-0.45c3.12-0.37,6.23-0.81,9.33-1.3
					c7.19-1.14,14.34-2.54,21.45-4.11c15.67-3.47,31.2-7.74,46.32-13.13c3.59-1.28,7.16-2.63,10.69-4.08
					c3.85-1.57,7.61-3.34,11.49-4.82c7.04-2.68,14.88-5.02,22.51-4.34c3.51,0.32,7.26,1.41,9.58,4.24c2.26,2.79,2.25,6.69,0.22,9.59
					c-0.93,1.32-2.19,2.18-3.46,3.13c-1.27,0.95-2.51,1.96-3.72,2.99c-3.02,2.56-5.91,5.28-8.76,8.03
					c-6.34,6.14-12.47,12.49-18.6,18.84c-1.67,1.74-3.35,3.47-5.02,5.21c-1.55,1.61-3.04,3.24-4.9,4.5
					c-3.12,2.12-6.65,2.93-10.31,3.5c-6.76,1.05-13.65,1.23-20.48,1.04c-7.6-0.21-15.18-0.9-22.73-1.85
					c-14.13-1.78-28.15-4.49-42.02-7.7c-2.71-0.63-5.45-1.22-8.13-1.96c-3.9-1.07-7.39-3.41-9.87-6.6
					c-1.27-1.64-2.27-3.49-2.94-5.45c-0.63-1.84-0.86-3.73-1.1-5.64c-0.46-3.64-0.97-7.27-1.59-10.88
					c-1.39-8.11-3.28-16.24-6.57-23.81c-3.08-7.09-7.6-13.47-13.25-18.75c-4.84-4.52-10.43-8.2-16.39-11.08
					c-0.43-0.21-0.87-0.41-1.31-0.61C131.01,276.1,152.67,228.73,162.62,208.7z"/>
				<path class="st19" d="M124.05,291.16c0.07-0.57-0.09-0.21,0.05-0.77c1.36-5.19,3.42-10.18,5.49-15.12
					c4.94-11.8,10.38-23.39,15.87-34.94c4.16-8.76,8.39-17.48,12.67-26.18c1.08-2.17,2.64-4.01,4.5-5.46
					c-9.95,20.04-31.61,67.4-25.43,88.58c-2.12-0.98-4.28-1.86-6.48-2.64c-1.16-0.41-2.33-0.8-3.51-1.16
					c-0.92-0.28-1.98-0.43-2.86-0.82C123.88,292.44,123.99,291.6,124.05,291.16z"/>
			</g>
			<path class="st8" d="M181.13,374.44c2.47,2.79,5.77,4.84,9.56,5.78c22.59,5.59,69.37,15.52,96.66,9.63
				c3.64-0.79,6.96-2.66,9.55-5.35c7.39-7.67,13.89-14.43,19.58-20.15C300.22,370.71,262.99,378.65,181.13,374.44z"/>
			<path class="st13" d="M302.44,371.87c0,0-8.67,14.79-23.46,15.3c-16.32,0.51-66.52-2.83-75.56-7.49
				C260.61,379.52,288.4,379.39,302.44,371.87z"/>
			<g>
				<path class="st3" d="M391.04,270.46c19.12,4.5,37.18,13.2,52.59,25.38c11.59,9.16,22.19,20.37,29.36,33.37
					c2.21,4,4.31,8.37,5.06,12.93c0.23,1.39,0.42,2.97,0.05,4.36c-0.09,0.32-0.2,0.62-0.34,0.89
					C464.09,324.37,435.8,286.48,391.04,270.46z"/>
				<path class="st3" d="M292.73,337.52c4.67-37.78,33.99-66.88,69.63-70.57c0.87-0.09,1.74-0.11,2.61-0.07
					c8.33,0.36,16.64,1.43,24.78,3.26c0.44,0.1,0.87,0.21,1.3,0.31c44.76,16.02,73.04,53.91,86.73,76.92
					c-0.39,0.78-0.96,1.37-1.65,1.83c-2.23,1.45-5.68,1.44-8.14,1.16c-3.81-0.43-7.38-2.07-10.67-3.97
					c-3.51-2.02-7.66-3.49-11.44-4.93c-25.3-9.62-52.83-10.02-79.24-5.4c-20.8,3.64-40.57,10.63-60.73,16.67
					C298.49,354.95,291.55,347.03,292.73,337.52z"/>
			</g>
			<path class="st4" d="M302.02,334.76c32.42-23.06,95.12-28.86,142.36-14.21c1.86,0.58,16.72,4,16.84,4.2
				c-13.95-22.1-41.81-41.41-66.5-49.18c-26.09-8.21-54.34-4.36-74.13,15.57c-5.37,5.41-9.94,11.66-13.62,18.32
				c-2.81,5.09-8.8,14.5-9.65,20.15C296.62,334.26,299.35,336.65,302.02,334.76z"/>
			<path class="st3" d="M310.9,317.47c0.26-0.36,0.43-0.74,0.62-1.08c0.72-1.24,1.37-2.38,1.92-3.36
				c3.48-6.3,7.65-11.91,12.39-16.69c11.32-11.4,26.29-17.43,43.29-17.43c7.7,0,15.57,1.25,23.38,3.7
				c13.36,4.2,27.07,11.74,38.75,20.87c1.85,1.44-35.17-18.32-59.99-15.95C327.27,291.74,309.43,319.53,310.9,317.47z"/>
			<path class="st8" d="M255.43,265.86c0.08,7.15,42.93,17.65,68.95,7.56c20.92-8.13,50.75-17.31,70.38-17.93
				c5.85-0.18,8.82-7.05,5.04-11.52c-12.76-15.1-24.11-14.82-39.35-3.19c-10.77,8.22-22.82,11.37-35.46,14.4
				c-13.01,3.11-23.14,6.47-36.84,3.32C274.58,255.37,257.82,243.09,255.43,265.86z"/>
			<path class="st13" d="M259.63,254.4c6.74,6.79,40,14.29,61.06,5.25c18.9-8.13,45.85-17.31,63.58-17.93
				c3.61-0.13,6.02-3.38,6.08-6.85c-10.52-7.87-22.26-9.39-36.45-3.11c-18.71,8.27-36.15,19.48-57.58,16.27
				C275.59,244.91,264.85,247.87,259.63,254.4z"/>
			<g>
				<path class="st8" d="M193.88,367.18c13.6,0,27.15-2.55,40.26-6.01c5.12-1.36,10.77-2.28,15.79-4.43
					c4.23-1.82,10.17-4.5,12.96-10.6c-2.94,3.04-28.17,11.71-50.64,14.43c-5.87,0.71-11.75,1.42-17.66,1.46
					c-5.6,0.04-9.91,0.17-13.35-4.69C179.23,365.03,188.19,367.18,193.88,367.18z"/>
			</g>
			<g>
				<path class="st16" d="M408.49,248.74c0,3.02,1.57,5.47,3.51,5.47h79.18c0.97,0,1.84-0.61,2.48-1.6
					c0.63-0.99,1.03-2.36,1.03-3.87c0-3.01-1.57-5.46-3.51-5.46H412c-0.97,0-1.85,0.61-2.48,1.6
					C408.89,245.87,408.49,247.23,408.49,248.74z"/>
				<path class="st20" d="M408.49,248.74h86.2c0-3.01-1.57-5.46-3.51-5.46H412c-0.97,0-1.85,0.61-2.48,1.6
					C408.89,245.87,408.49,247.23,408.49,248.74z"/>
			</g>
		</g>
		<g>
			<g>
				<path class="st2" d="M187.7,133.37c0.01,6.88,1.86,12.45,4.14,12.45c2.27,0,4.11-5.58,4.1-12.46
					c-0.01-6.88-1.86-12.45-4.14-12.45C189.52,120.91,187.68,126.49,187.7,133.37z"/>
			</g>
			<g>
				<path class="st3" d="M185.48,133.37c0.01,5.64,2.59,10.41,4.62,11.93c0.44,0.34,0.86,0.51,1.22,0.51c2,0,3.6-5.58,3.6-12.46
					c-0.02-6.88-1.64-12.45-3.63-12.45c-0.36,0-0.78,0.18-1.22,0.53c-1.94,1.47-4.38,5.92-4.58,11.26
					C185.48,132.92,185.48,133.15,185.48,133.37z"/>
			</g>
			<g>
				<path class="st4" d="M185.48,133.37c0.01,5.64,2.59,10.41,4.62,11.93c0.99-1.53,1.72-6.3,1.71-11.94
					c-0.01-5.64-0.74-10.4-1.74-11.93c-1.94,1.47-4.38,5.92-4.58,11.26C185.48,132.92,185.48,133.15,185.48,133.37z"/>
			</g>
			<g>
				<path class="st5" d="M185.78,134.2c0.22,1.41,1.25,2.41,2.31,2.25c1.06-0.16,1.74-1.44,1.53-2.84
					c-0.22-1.41-1.25-2.41-2.31-2.25C186.24,131.52,185.56,132.8,185.78,134.2z"/>
				<path class="st6" d="M185.56,184.13c0.05,0,0.1,0,0.16-0.01c0.63-0.09,1.07-0.66,0.98-1.29l-5.47-40.12l7.34-8.59
					c0.41-0.48,0.36-1.21-0.13-1.62c-0.48-0.41-1.21-0.35-1.62,0.13l-7.67,8.98c-0.21,0.25-0.31,0.58-0.26,0.9l5.54,40.63
					C184.5,183.71,184.99,184.13,185.56,184.13z"/>
			</g>
		</g>
		<g>
			<path class="st6" d="M185.78,181.46L185.78,181.46c1.82-1.55,4.59-1.33,6.16,0.5l11.82,14.84l-1.26-0.13l-0.47,4.72h-3.69
				c0.41-0.2,0.76-0.49,0.94-0.97c0.07-0.19-0.21-0.35-0.34-0.2c-0.25,0.28-0.56,0.38-0.91,0.4v0c0.05-0.47-0.49-0.7-0.86-0.54
				c0-0.29-0.01-0.58-0.02-0.86c-0.02-0.62-0.54-0.93-1.11-0.84c-0.36,0.06-0.74,0.27-0.96,0.59l-9.75-11.37
				C183.75,185.78,183.96,183.02,185.78,181.46z"/>
			<path class="st8" d="M187.08,194.28c1.7,2.93,6.11,3.2,9.31,0.96c3.19-2.24,4.21-6.31,2.26-9.08c-1.95-2.77-6.25-3.38-9.31-0.96
				C186.21,187.68,185.13,190.91,187.08,194.28z"/>
			<path class="st8" d="M199.43,186.66l-1.72-1.5c-0.2-0.15-1.46-0.78-1.7-0.76l-3.44,0.36L199.43,186.66z"/>
			<path class="st6" d="M187.63,194.55c1.46,2.47,5.4,2.84,8.78,0.83c3.38-2.01,4.94-5.64,3.48-8.11c-1.46-2.47-5.4-2.84-8.78-0.83
				S186.16,192.08,187.63,194.55z"/>
			<path class="st5" d="M188.66,194.19c1.19,2.23,4.55,2.77,7.5,1.19c2.95-1.57,4.38-4.66,3.19-6.89c-1.19-2.23-4.55-2.77-7.5-1.19
				C188.9,188.88,187.47,191.96,188.66,194.19z"/>
			<path class="st8" d="M192.46,188.4c2.97-1.74,5.45-0.9,6.79,0.4c4.07,5.02,9.85,9.47,13.72,15.65c0.12,0.16-0.05,0.56-0.1,0.74
				c-0.3,0.95-0.46,1.37-0.8,2.3c-0.81-0.17-1.63-0.33-2.44-0.46c-0.08,0.46-0.16,0.92-0.25,1.38c-1.12-0.22-2.84,0.38-2.87,0.57
				c-4.54-5.11-11.81-8.89-17.21-14.2C188.3,193.09,190.11,189.94,192.46,188.4z"/>
			<path class="st6" d="M207.23,204.53c-1.48,1.73-1.62,4.03-0.31,5.14c1.3,1.11,3.55,0.62,5.03-1.11c1.47-1.73,1.62-4.03,0.31-5.14
				C210.96,202.31,208.71,202.81,207.23,204.53z"/>
		</g>
		<path class="st21" d="M497,330.28c0-5.72,4.62-10.36,10.34-10.39c-0.06-0.46-0.11-0.93-0.11-1.41c0-5.76,4.67-10.44,10.44-10.44
			c4.62,0,8.54,3.01,9.91,7.17c1.62-1.03,3.53-1.63,5.59-1.63c5.76,0,10.44,4.67,10.44,10.44c0,5.76-4.67,10.44-10.44,10.44
			c-0.01,0-0.01,0-0.02,0c0.01,0.13,0.02,0.27,0.02,0.4c0,5.76-4.67,10.44-10.44,10.44c-0.77,0-1.52-0.09-2.24-0.25
			c-1.89,2.67-5,4.41-8.51,4.41c-5.76,0-10.44-4.67-10.44-10.44c0-0.05,0.01-0.1,0.01-0.16C498.8,337,497,333.85,497,330.28z"/>
	</g>
</g>
<g id="_x32__1_">
	<g>
		<path class="st22" d="M205.88,198.32l-0.64,1.13c2.94-0.84,6.05-1.23,8.65-1.44c0.51-0.04,2.69-0.29,5.02-0.48
			c3.08-0.26,6.44-0.4,6.65,0.24l-0.36-1.41l-1.31-5.2c-1.54-0.11-3.08-0.19-4.62-0.22c-3.5-0.13-7-0.1-10.49,0.05
			c-2.6,0.1-5.25,0.26-7.87,0.63l4.69,4.69c0.1,0.1,0.2,0.23,0.26,0.35C206.17,197.15,206.18,197.78,205.88,198.32z"/>
		<path class="st23" d="M205.24,199.44c2.94-0.84,6.05-1.23,8.65-1.44c0.51-0.04,2.69-0.29,5.02-0.48c3.08-0.26,6.44-0.4,6.65,0.24
			l-0.36-1.41c-2.08-0.11-4.14-0.17-6.22-0.2c-2.53-0.02-5.05,0.01-7.57,0.11c-1.81,0.07-3.68,0.17-5.55,0.37
			c0.3,0.51,0.31,1.14,0.01,1.68L205.24,199.44z"/>
		<path class="st24" d="M300.23,162.5l-18.94,5.35l1.39,35.13l-63.3-14.17l-0.53,9.8c0,0,38.02,18.94,72.96,27.98
			C293.87,227.13,306.21,207.38,300.23,162.5z"/>
	</g>
	<path class="st24" d="M209.92,303.96c3.41-10.04,4.21-21.24,8.44-30.96c2.55-5.87-0.62-4.73,5.1-4.89c1.29-0.04,11.79,0.92,11.58,2
		c-4.34,22.41-12.91,44.09-22.38,64.4c-1.4,3.01-5.62,13.88-6.7,16.37c-0.63,1.45-9.65-1.15-9.38-2.99
		C197.63,340.88,206.95,312.71,209.92,303.96z"/>
	<path class="st25" d="M244.12,123.9c-0.15-1.28,0.55-2.76,1.16-3.9c-0.38,0.71-2.83,1.74-3.61,1.91c-3.99,0.89-5.99-3.38-7.92-5.92
		c3.59-0.78,6.83-1.85,10.26-3.01c2.47-0.84,8.66-0.99,8.33,2.98c-0.16,1.9-2.51,3.79-4.03,4.64c-0.75,0.42-1.88,0.53-2.51,1.04
		C245.73,121.69,244.14,124.05,244.12,123.9z"/>
	<path class="st22" d="M222.53,108.99c0.5,0.56,1.09,1.09,1.7,1.53c0.19,0.14,0.36,0.26,0.56,0.38c0.05,0.05,0.11,0.07,0.16,0.11
		c2.16,1.33,5.64,1.64,7.45,3.1c0.03,0.01,0.05,0.02,0.08,0.05c1.89,1.59,1.06,6.2,4.03,6.69c2.74,0.45,9.38-3.77,12.44-6.39
		c0.71,3.7-8.25,6.11-8.51,11.55c4.15,2,3.58,7.16,11.82,8.27c1.61,0.22,3.46,0.24,5.34,0.04c2.15-0.22,4.34-0.64,6.19-0.88
		c8.67-1.1,20.31-1.96,23.91-9.87c6.93-15.18,25.46-26.63,18.55-43.43c-10.19-24.76-41.71-33.13-62.51-16.62
		c-8.82,7.02-7.9,11.76-8.95,21.41c-0.43,3.9-1.91,8.65-4.84,11.29c-0.88,0.79-2.04,1.33-3.24,1.84c-0.7,0.3-1.41,0.59-2.09,0.91
		c-1.3,0.63-2.49,1.38-3.2,2.54C219.8,104.18,220.7,106.94,222.53,108.99z"/>
	<path class="st26" d="M299.21,105.36c-1.29,5.89,1.34,15.26,9.42,11.04c-2.23,3.05-7.33,4.97-10.79,3.13
		c1.3,6.54,9.92,6.11,14.91,7.21c0.1,3.38-6.86,3.94-9.19,3.75c-4.53-0.36-8.54-4.38-11.41-7.56c-4.4-4.88-4.03-11.73-2.81-17.72
		c0.33-1.61,4.09-14.23,1.95-15.07c-2.25-0.87-10.17,8.73-10.17,8.73s-9.14-9.74-9.17-9.77c-0.4-0.42-0.53-2.39-0.79-3
		c-1.18-2.86-3.51-5.13-6.04-6.81c-6.24-4.16-16.71-8.7-24.24-6.08c-4.72,1.64-10.23,11.17-15.68,7.22c1.6-0.25,5.13-1.9,5.96-3.33
		c-4.47,2.88-10.96-0.13-14.96-2.86c-1.54-1.05-3.86-3.53-4.03-5.52c-0.2-2.41,2.68-2.61,2.71-2.95c-0.38,5.92,6.51,8.4,11.41,7.6
		c5.95-0.98,7.08-8.93,12.65-11.31c6.69-2.86,14.42-2.76,21.56-3.04c10.16-0.4,21.54,0.63,29.94,6.94
		C302.65,75.12,302.17,91.87,299.21,105.36z"/>
	<path class="st27" d="M218.74,316.46c2.64-9.19,2.6-19.35,6.08-28.28c2.1-5.39,2.35-5.59,8.02-5.92
		c1.28-0.07,11.78,0.44,11.66,1.42c-2.64,20.41-9.54,40.3-17.44,58.99c-1.17,2.77-3.74,12.75-6.14,14.19
		c-3.58,2.14-6.07-2.08-8.89-2.96c0.91-5.85,1.93-11.53,2.31-17.49C214.75,329.87,216.93,322.74,218.74,316.46z"/>
	<path class="st28" d="M240.26,233.94c-10.01-0.11-18.69,21.66-22.15,33.36c-2.23,7.53-11.93,47.85-13.19,47.32
		c2.4,2.31,8.8,6.64,12.21,7.48c10.38,2.54,12.02-30.53,21.26-36.25c7.53-4.66,4.63-22.13,5-30.14
		C243.61,251.02,249.68,234.04,240.26,233.94z"/>
	<path class="st22" d="M287.71,123.57c2.86,4.98,12.22,10.04,10.37,16.06c-1.19,3.89-6.92,7.66-9.96,10.04
		c-4.26,3.32-6.1,3.4-10.34,0.03c-5.69-4.52-7.91-11.4-9.12-18.26c-0.64-3.63-2.88-9.31,1.03-11.75
		C272.67,117.81,285.85,120.34,287.71,123.57z"/>
	<path class="st29" d="M298.99,217.14c-4.06,4.3-11.83,4.16-18.08,4.91c-12.39,1.48-24.75,3.55-36.68,7.27
		c-17.57,5.49-16.46,16.45-19.54,31.22c-4.68,22.48-2.44,41.43-9.55,63.39c-0.47,1.46,18.79,10.39,19.65,4.45
		c1.51-10.44,16.1-60.5,18.93-68c7.92-21.01,34.77-5.42,55.65-9.04c24.45-4.23,40.14-10.46,44.96-30.5
		C336.27,223.83,312.17,219.88,298.99,217.14z"/>
	<path class="st29" d="M263.79,133.44c0,0,20.64-9.11,24.49-24.82c3.85-15.71,5.22,2.27,5.22,2.27s-6.6,19.63-25.93,25.58
		C264.81,135.62,263.79,133.44,263.79,133.44z"/>
	<path class="st3" d="M358.55,222.75c4.42-3.17,14.62-6.13,7.79-12.47c-3.53-3.28-6.65-5.85-9.55-9.82
		c-6.54-8.94-8.33-20.58-13.84-30.15c-5.87-10.19-11.66-16.35-23.7-26.36c-2.65-2.2-22.83-12.41-23.05-11.31
		c-2.41,12.09-12.68,12.37-22.07,14.01c-0.45,10.88,6.41,28.09,11.91,37.47c5.04,8.59,18.64,22.54,14.4,30.56
		c-0.4,0.76-0.89,1.42-1.44,2c12.06,2.5,23.99,5.5,36.21,7.17C343.02,224.93,352.07,227.4,358.55,222.75z"/>
	<path class="st4" d="M188.11,362.03c-4.86-1.42-6.59-3.68-7.35-6.2c5.12-1.44,13.53-1.98,15.72-8.19c1.42,0.99,2.23,2.18,3.86,2.79
		c2.18,0.82,3.56,0.46,5.89,0.77c-0.4,0.56,0.48,7.13-1.19,8.51c-1.78,1.47-5.94,0.63-8,1.66c-1.6,0.8-4.8,0-7.8,1.03L188.11,362.03
		z"/>
	<path class="st26" d="M257.69,85.72c0,0-8.3-6.31-15.96-0.51C234.07,90.99,243.77,73.84,257.69,85.72z"/>
	<path class="st25" d="M253.18,94.72c0,0-7.51-7.91-14.15-3.79C235.67,97.19,242.35,103.1,253.18,94.72z"/>
	<path class="st30" d="M239.03,93.52c0,1.87,1.22,3.38,2.73,3.38c1.51,0,2.73-1.51,2.73-3.38c0-1.87-1.22-3.38-2.73-3.38
		C240.26,90.14,239.03,91.65,239.03,93.52z"/>
	<path class="st26" d="M239.34,93.52c0,0.83,0.54,1.5,1.21,1.5c0.67,0,1.21-0.67,1.21-1.5c0-0.83-0.54-1.5-1.21-1.5
		C239.88,92.02,239.34,92.69,239.34,93.52z"/>
	
		<radialGradient id="SVGID_1_" cx="432.5511" cy="105.491" r="15.3504" gradientTransform="matrix(-1 0 0 1 696.8477 0)" gradientUnits="userSpaceOnUse">
		<stop  offset="3.636360e-03" style="stop-color:#E89587"/>
		<stop  offset="0.9964" style="stop-color:#EFCEAC"/>
	</radialGradient>
	<path class="st31" d="M248.95,105.49c0,8.48,6.87,15.35,15.35,15.35c8.48,0,15.35-6.87,15.35-15.35c0-8.48-6.87-15.35-15.35-15.35
		C255.82,90.14,248.95,97.01,248.95,105.49z"/>
	<path class="st32" d="M253.18,94.72c0,0-10.89-10.8-14.15-3.79C238.68,91.69,243.28,88.4,253.18,94.72z"/>
	<path class="st32" d="M224.23,110.51c0.24,0.18,0.48,0.34,0.73,0.49c2.16,1.33,5.64,1.64,7.45,3.1c0.03-0.15,0.03-0.3,0.03-0.46
		c-0.03-0.95-0.83-1.12-1.16-1.66c-1-1.61-2.6-2.73-4.56-2.39C226.07,109.69,225.14,109.6,224.23,110.51z"/>
	
		<linearGradient id="SVGID_2_" gradientUnits="userSpaceOnUse" x1="482.4622" y1="98.9096" x2="471.8305" y2="104.1212" gradientTransform="matrix(-1 0 0 1 696.8477 0)">
		<stop  offset="3.636360e-03" style="stop-color:#E88076"/>
		<stop  offset="0.9964" style="stop-color:#EFCEAC"/>
	</linearGradient>
	<path class="st33" d="M222.53,108.99c0.5,0.56,1.09,1.09,1.7,1.53c0.19,0.14,0.36,0.26,0.56,0.38c-1.14-4.9,0.2-9.43,1.91-12.82
		c-0.7,0.3-1.41,0.59-2.09,0.91c-1.3,0.63-2.49,1.38-3.2,2.54C219.8,104.18,220.7,106.94,222.53,108.99z"/>
	<g>
		<path class="st3" d="M258.03,40.09c-15.23,5.6-28.61,18.81-39.93,29.96c0.23-0.23,2.14,5.85,20.74,2.06
			c9.99-2.04,20.84,1.13,29.33,7.08c7.37,5.17,17.14,12.62,17.6,22.47c0.09,1.92-1.09,4.46-0.5,6.56
			c2.54,8.97,12.39,7.28,15.73,0.95c2.06-3.91,2.84-7.71,5.45-11.63c2.57-3.87,5.12-7.46,6.51-11.97
			c5.81-18.83-8.23-38.45-25.85-45.4C276.79,36.12,267.09,36.76,258.03,40.09z"/>
		<path class="st4" d="M297.96,56.3c4.93,4.34,7.32,10.06,11.04,15.97c-1.84-15.7-10.98-24.54-22.57-28.86
			c-10.18-3.8-22.03-3.35-31.79,1.49c-8.78,4.35-25.48,15.41-35.13,25.19c5.11-3.91,9.75-8.02,14.65-11.13
			c10.29-6.53,22.09-11.76,34.41-12.43c9.56-0.52,17.95,2.41,26,7.3C295.84,54.59,296.95,55.42,297.96,56.3z"/>
		<path class="st4" d="M289.35,105.21c0,0-1.59-36.68-51.29-36.06C243.39,65.4,291.04,66.05,289.35,105.21z"/>
	</g>
	<path class="st3" d="M223.46,352.79c0,0-7.37,2.93-11.44-0.01c-12.64,7.48-23.71-1.89-27.86,3.03c-7.1,8.45,29.05,11.48,40.29,5.09
		C227.69,357.21,223.46,352.79,223.46,352.79z"/>
	<g>
		<path class="st22" d="M200.64,212.22c0.26,0.39,0.65,0.79,1.11,1.16c1.49,1.19,3.75,2.09,4.89,1.2c1.66-1.29,1.4-6.18,3.38-8.08
			c4.11-3.98,11.93-4.54,17.41-4.54c1.23,0,11.63-0.44,11.91,0.7l-0.25-1.44l-0.93-5.29c-5.09-0.75-10.24-1.2-15.38-1.39
			c-3.85-0.15-7.79-0.2-11.63,0.32c-2.45,0.34-8.73,0.68-10.22,2.55C198.96,199.89,198.87,209.64,200.64,212.22z"/>
		<path class="st23" d="M201.75,213.39c1.49,1.19,3.75,2.09,4.89,1.2c1.66-1.29,1.4-6.18,3.38-8.08c4.11-3.98,11.93-4.54,17.41-4.54
			c1.23,0,11.63-0.44,11.91,0.7l-0.25-1.44c-4.65-0.63-9.36-1.01-14.05-1.2c-4.88-0.2-10.13-0.2-14.9,1.25
			c-2.43,0.74-4.84,1.88-6.59,3.79C201.22,207.61,201.44,210.12,201.75,213.39z"/>
		<path class="st27" d="M316.48,175.74l-23.88,1.74l4.55,34.97l-63.38-19.2l-1.33,9.72c0,0,37.23,21.93,72.11,33.75
			C306.59,237.41,324.99,227.23,316.48,175.74z"/>
	</g>
	<path class="st26" d="M242.24,90.74c0,0-2.84,0.22-4.19-1.32C238.8,91.41,238.75,91.2,242.24,90.74z"/>
	<path class="st4" d="M291.61,183.99c0,0-9.22-19.69-5.91-29.45c3.31-9.77,22.76-17.46,33.46,17.07
		C321.06,177.05,291.61,183.99,291.61,183.99z"/>
</g>
<g id="_x33_">
	<g>
		<path class="st34" d="M405.08,274.58c0.16-0.31,0.25-0.67,0.19-1.04c-0.05-0.34-4.62-35.28,1.02-79.25
			c3.81-29.75,13-68.2,34.55-102.26c6.53-10.31,14.18-20.22,23.17-29.35c1.74-1.78,3.52-3.52,5.37-5.23
			c0.68-0.64,0.72-1.72,0.08-2.42c-0.6-0.64-1.58-0.71-2.27-0.18c-0.05,0.01-0.1,0.05-0.14,0.1c-1.88,1.75-3.72,3.52-5.48,5.34
			c-9.28,9.43-17.16,19.66-23.85,30.28c-21.71,34.48-30.97,73.26-34.82,103.28c-5.31,41.46-1.64,75.06-1.09,79.62
			c0.46,0.15,0.94,0.31,1.41,0.48L405.08,274.58z"/>
	</g>
	<g>
		<path class="st35" d="M467.33,57.44c-1.56,1.45-3.09,2.92-4.58,4.43c-9.19,9.23-17.02,19.26-23.67,29.72
			c-21.76,34.16-31.01,72.82-34.83,102.69c-5.64,43.97-1.08,78.91-1.02,79.25c0.01,0.14,0.01,0.27,0,0.41
			c-0.46-0.16-0.94-0.33-1.41-0.48c-0.55-4.56-4.22-38.17,1.09-79.62c3.85-30.02,13.11-68.8,34.82-103.28
			c6.69-10.63,14.57-20.86,23.85-30.28c1.76-1.82,3.59-3.59,5.48-5.34c0.04-0.04,0.08-0.08,0.14-0.1c0.08,0.04,0.15,0.11,0.22,0.18
			C468.05,55.72,468.01,56.8,467.33,57.44z"/>
	</g>
	<path class="st3" d="M466.5,65.75c-0.84-0.93-1.62-1.92-2.32-3c-1.48-0.65-1.88-1.23-2.66-2.56
		c-12.99,10.48-23.98,30.12-23.98,30.12s1.16,1.85,3.9,1.71c1.16,0.28,2.82,0.39,4.27,0.68c15.11,3.03,47.14,9.99,71.12,1.6
		C516.83,94.31,479.52,80.11,466.5,65.75z"/>
</g>
<g id="_x34_">
	<path class="st3" d="M516.98,195.96c-0.39-3.49-0.97-6.97-1.81-10.46c-1.97-7.57-11.88-15-20.43-16.05
		c-21.74-2.37-43.47-2.75-65.21-1.21l27.71,27.71H516.98z"/>
	<path class="st4" d="M429.53,168.25c-4.58,0.33-9.16,0.71-13.75,1.21c-8.56,1.04-18.47,8.48-20.43,16.05
		c-0.84,3.49-1.42,6.97-1.81,10.46h63.69L429.53,168.25z"/>
	<path class="st3" d="M393.29,212.59c0.36,4.29,1.03,8.57,2.06,12.86c1.97,7.57,11.88,15,20.43,16.05c26.32,2.87,52.63,2.87,78.95,0
		c2.05-0.25,4.18-0.88,6.26-1.78l-27.13-27.13H393.29z"/>
	<path class="st3" d="M463.93,202.65h-70.88c-0.04,1.08-0.05,2.17-0.05,3.25h74.18L463.93,202.65z"/>
	<path class="st3" d="M501,239.72c6.59-2.85,12.67-8.52,14.17-14.27c1.03-4.29,1.71-8.57,2.06-12.86h-43.37L501,239.72z"/>
	<path class="st36" d="M467.18,205.9h50.35c0-1.08-0.01-2.17-0.05-3.25h-53.55L467.18,205.9z"/>
	<path class="st37" d="M523.03,199.92v-1.22c0-1.5-1.23-2.73-2.73-2.73h-3.33c0.22,2,0.4,4,0.49,6.01c0.01,0.23,0.01,0.46,0.02,0.68
		h2.82C521.81,202.65,523.03,201.42,523.03,199.92z"/>
	<path class="st37" d="M393.55,195.96h-2.56c-1.5,0-2.73,1.23-2.73,2.73v1.22c0,1.5,1.23,2.73,2.73,2.73h2.05
		c0.01-0.23,0.01-0.46,0.02-0.68C393.14,199.97,393.32,197.97,393.55,195.96z"/>
	<path class="st37" d="M463.24,201.97h54.22c-0.08-2-0.26-4-0.49-6.01h-59.74L463.24,201.97z"/>
	<path class="st37" d="M463.24,201.97l-6.01-6.01h-63.69c-0.22,2-0.4,4-0.49,6.01H463.24z"/>
	<path class="st37" d="M463.24,201.97h-70.18c-0.01,0.23-0.01,0.46-0.02,0.68h70.88L463.24,201.97z"/>
	<path class="st37" d="M463.24,201.97l0.68,0.68h53.55c-0.01-0.23-0.01-0.46-0.02-0.68H463.24z"/>
	<path class="st37" d="M390.99,205.9c-1.5,0-2.73,1.23-2.73,2.73v1.22c0,1.5,1.23,2.73,2.73,2.73h2.3
		c-0.19-2.23-0.28-4.46-0.29-6.69H390.99z"/>
	<path class="st37" d="M520.3,212.59c1.5,0,2.73-1.23,2.73-2.73v-1.22c0-1.5-1.23-2.73-2.73-2.73h-2.78
		c-0.01,2.23-0.11,4.46-0.29,6.69H520.3z"/>
	<path class="st37" d="M473.87,212.59h43.37c0.19-2.23,0.28-4.46,0.29-6.69h-50.35L473.87,212.59z"/>
	<path class="st37" d="M467.18,205.9H393c0.01,2.23,0.11,4.46,0.29,6.69h80.58L467.18,205.9z"/>
</g>
</svg>
